<?xml version="1.0" standalone="no"?>
<!DOCTYPE svg PUBLIC "-//W3C//DTD SVG 20010904//EN"
 "http://www.w3.org/TR/2001/REC-SVG-20010904/DTD/svg10.dtd">
<svg version="1.0" xmlns="http://www.w3.org/2000/svg"
 width="4661.000000pt" height="4661.000000pt" viewBox="0 0 4661.000000 4661.000000"
 preserveAspectRatio="xMidYMid meet">
<metadata>
Created by potrace 1.14, written by Peter Selinger 2001-2017
</metadata>
<g transform="translate(0.000000,4661.000000) scale(0.100000,-0.100000)"
fill="#000000" stroke="none">
<path d="M39557 44243 c-3 -5 -8 -42 -11 -83 -4 -41 -9 -91 -11 -110 -2 -19
-6 -66 -10 -105 -4 -38 -8 -77 -10 -85 -1 -8 -6 -46 -10 -83 -3 -37 -8 -76
-10 -86 -2 -10 -6 -42 -10 -72 -3 -30 -8 -66 -11 -80 -2 -15 -6 -47 -9 -70 -3
-24 -10 -69 -16 -101 -5 -31 -9 -60 -8 -65 1 -4 -1 -19 -4 -33 -8 -31 -16 -73
-23 -125 -2 -22 -8 -51 -11 -65 -3 -14 -7 -34 -8 -45 -6 -41 -61 -311 -81
-400 -3 -11 -7 -31 -10 -45 -6 -38 -44 -193 -85 -350 -11 -41 -22 -86 -24
-100 -3 -14 -10 -36 -15 -50 -5 -14 -16 -52 -25 -85 -41 -151 -147 -473 -210
-640 -15 -38 -33 -86 -40 -105 -7 -19 -19 -48 -26 -65 -7 -16 -13 -32 -14 -35
-40 -118 -337 -748 -400 -850 -49 -78 -120 -205 -117 -209 2 -2 -3 -8 -12 -13
-9 -5 -16 -16 -16 -23 0 -8 -4 -15 -10 -15 -5 0 -10 -4 -10 -9 0 -10 -85 -138
-144 -217 -17 -23 -40 -54 -51 -70 -21 -28 -118 -148 -161 -196 -13 -16 -25
-30 -27 -33 -1 -4 -39 -45 -84 -93 -45 -47 -79 -90 -76 -94 2 -5 1 -7 -4 -6
-13 4 -184 -178 -175 -186 4 -4 2 -6 -4 -4 -6 2 -30 -17 -54 -42 -24 -25 -91
-95 -149 -156 -175 -183 -352 -379 -352 -388 0 -3 -16 -22 -35 -43 -52 -56
-204 -257 -204 -270 0 -6 -4 -13 -9 -15 -18 -6 -123 -184 -191 -323 -72 -145
-141 -339 -165 -460 -8 -38 -17 -81 -20 -95 -5 -24 -11 -72 -21 -155 -7 -60
-6 -350 0 -430 12 -134 16 -172 31 -280 19 -141 25 -179 30 -205 3 -14 8 -41
11 -60 33 -179 41 -221 49 -260 9 -41 43 -222 51 -270 3 -14 11 -57 19 -95 8
-39 16 -86 19 -105 2 -19 11 -75 19 -125 26 -153 36 -242 54 -490 15 -211 8
-860 -11 -1010 -3 -16 -7 -68 -10 -115 -4 -47 -9 -96 -12 -110 -2 -14 -6 -45
-9 -70 -9 -89 -16 -146 -25 -200 -6 -30 -12 -73 -15 -95 -3 -22 -8 -54 -10
-71 -4 -27 -17 -96 -41 -214 -84 -414 -259 -949 -425 -1299 -27 -56 -49 -109
-49 -116 0 -7 -3 -15 -7 -17 -5 -1 -29 -46 -56 -98 -57 -113 -107 -205 -152
-280 -18 -30 -35 -61 -37 -69 -2 -7 -13 -25 -25 -39 -13 -14 -23 -29 -23 -33
0 -10 -260 -399 -280 -419 -34 -34 -30 -35 71 -37 176 -3 308 -52 396 -147 44
-46 59 -70 84 -131 49 -119 65 -162 103 -268 66 -183 163 -502 180 -587 2 -14
14 -61 25 -105 11 -44 22 -91 25 -105 2 -14 11 -56 20 -95 17 -78 17 -77 50
-270 31 -178 47 -290 62 -430 3 -27 7 -66 10 -85 2 -19 6 -64 9 -100 3 -36 7
-87 10 -115 19 -198 25 -718 12 -990 -7 -145 -10 -181 -22 -310 -3 -33 -8 -85
-11 -115 -2 -30 -6 -66 -9 -80 -2 -14 -7 -52 -10 -85 -4 -33 -8 -67 -11 -75
-2 -8 -6 -35 -9 -60 -3 -25 -12 -83 -20 -130 -15 -82 -19 -107 -30 -160 -11
-54 -19 -96 -20 -110 -1 -8 -5 -22 -8 -30 -3 -8 -13 -53 -23 -99 -20 -90 -27
-101 -104 -154 -25 -17 -47 -33 -50 -36 -3 -3 -12 -10 -22 -16 -9 -5 -69 -46
-135 -91 -65 -45 -156 -105 -203 -134 -145 -91 -291 -180 -295 -180 -2 0 -26
-13 -52 -28 -103 -61 -317 -172 -485 -251 -215 -101 -621 -252 -740 -275 -13
-2 -30 -7 -38 -10 -8 -3 -26 -8 -40 -10 -14 -3 -56 -12 -94 -21 -38 -8 -89
-18 -114 -21 -25 -3 -48 -7 -52 -9 -3 -2 -48 -7 -100 -11 -468 -40 -800 74
-1035 356 -36 43 -65 83 -65 89 0 6 -3 11 -7 11 -5 0 -13 10 -19 23 -6 12 -27
51 -46 87 -31 58 -92 213 -104 265 -8 32 -10 39 -17 60 -3 11 -8 31 -11 45 -3
14 -12 52 -20 85 -8 33 -17 74 -19 90 -3 17 -10 53 -16 80 -6 28 -13 66 -16
85 -8 56 -15 103 -20 135 -10 65 -15 106 -20 171 -3 38 -8 96 -12 129 -9 84
-10 689 0 810 14 194 21 270 32 355 3 19 7 56 10 81 3 25 7 55 9 66 3 11 7 44
11 74 5 51 8 68 20 129 3 14 7 39 10 55 9 68 16 111 20 125 2 8 7 31 10 50 3
19 13 69 22 110 8 41 17 86 19 100 3 14 16 75 30 135 14 61 27 121 30 135 2
14 7 32 10 40 3 8 8 26 10 40 22 116 174 669 251 915 9 28 15 50 13 50 -1 0 4
16 12 35 8 19 16 38 16 43 1 4 3 9 3 12 1 3 2 8 3 13 1 4 13 41 26 82 13 41
25 80 26 85 0 6 4 17 7 25 9 22 78 232 82 250 1 8 15 49 30 90 14 41 28 82 30
90 2 8 25 76 50 150 25 74 47 142 49 150 3 8 25 76 51 150 25 74 48 142 50
150 2 8 16 49 30 90 14 41 28 82 30 90 2 8 31 98 65 200 196 594 378 1192 397
1305 3 17 9 38 14 48 5 9 8 17 5 17 -2 0 5 33 15 73 26 95 22 80 58 252 17 83
34 161 37 175 3 14 7 34 9 45 7 39 47 290 51 325 2 19 6 49 9 65 2 17 7 58 10
90 3 33 8 74 10 90 19 145 26 601 11 760 -9 95 -13 130 -16 130 0 0 -3 25 -5
55 -3 43 -40 233 -69 360 -7 26 -83 253 -104 305 -58 150 -119 269 -157 305
-46 44 -93 47 -174 11 -36 -16 -71 -27 -78 -24 -23 9 -39 45 -48 108 -7 46 -6
355 1 495 3 69 6 215 7 325 0 227 -5 285 -38 417 -17 69 -70 178 -88 179 -44
5 -67 3 -107 -10 -99 -31 -133 -77 -196 -261 -54 -159 -64 -179 -110 -225 -48
-48 -92 -65 -169 -66 -60 0 -78 6 -81 26 -1 9 -8 40 -15 69 -7 28 -14 54 -15
59 -1 4 -3 9 -4 12 -1 3 -4 10 -5 15 -1 6 -4 12 -5 15 -1 3 -3 8 -4 13 -7 28
-58 122 -66 122 -6 0 -9 4 -6 9 10 15 -75 96 -134 129 -56 31 -216 83 -258 84
-26 1 -39 22 -25 41 5 6 20 39 32 72 12 33 28 74 36 90 13 29 43 122 51 158 2
9 6 26 9 37 8 31 25 118 30 150 24 151 21 409 -5 510 -5 19 -11 51 -14 70 -23
143 -96 339 -211 565 -89 173 -278 485 -294 485 -4 0 -8 6 -8 13 0 6 -39 70
-86 141 -48 70 -87 130 -87 132 0 8 -75 119 -82 122 -5 2 -8 8 -8 13 0 5 -12
28 -27 52 -31 47 -46 75 -122 219 -30 57 -69 137 -88 178 l-33 75 5 -125 c3
-69 8 -172 12 -230 8 -153 9 -671 1 -771 -7 -83 -36 -267 -44 -280 -2 -3 -6
-21 -9 -40 -11 -61 -55 -182 -103 -279 -25 -52 -49 -97 -52 -100 -3 -3 -22
-27 -41 -54 -18 -27 -50 -66 -70 -88 -36 -40 -36 -40 -77 -27 -112 33 -164
134 -187 362 -4 32 -9 68 -11 80 -3 12 -7 38 -9 57 -12 105 -78 234 -125 242
-8 2 -18 7 -21 11 -7 9 -39 15 -94 18 -68 3 -65 8 -59 -93 16 -256 8 -351 -33
-438 -14 -30 -25 -59 -24 -65 2 -5 0 -7 -4 -3 -4 4 -21 -6 -39 -22 -17 -17
-51 -36 -74 -45 -58 -19 -179 -13 -255 14 -76 27 -196 93 -226 125 -14 15 -30
26 -38 26 -7 0 -13 4 -13 9 0 4 -10 19 -22 33 -89 96 -162 274 -183 447 -4 30
-8 61 -10 70 -3 18 -13 154 -20 291 -3 47 -7 105 -10 130 -3 25 -8 70 -11 100
-8 75 -9 81 -19 110 -10 28 -11 35 -13 69 -2 19 -5 21 -16 11 -20 -16 -149
-187 -174 -230 -99 -168 -132 -239 -182 -388 -69 -208 -94 -370 -92 -607 0
-135 8 -292 16 -335 3 -14 7 -45 10 -70 3 -25 8 -56 11 -70 3 -14 7 -39 9 -57
3 -18 7 -40 10 -50 2 -10 7 -34 10 -54 3 -19 14 -73 25 -120 30 -131 31 -123
-9 -125 -67 -4 -129 45 -144 111 -13 63 -16 82 -21 174 -7 120 -12 146 -34
196 -21 46 -36 61 -74 70 -22 6 -27 4 -28 -11 0 -11 -2 -28 -5 -39 -2 -11 -6
-40 -9 -65 -2 -25 -7 -56 -10 -70 -6 -26 -10 -63 -20 -165 -3 -33 -8 -76 -10
-95 -11 -84 -37 -446 -50 -695 -3 -55 -7 -129 -10 -165 -2 -36 -7 -110 -10
-165 -3 -55 -8 -127 -10 -160 -2 -33 -7 -103 -10 -155 -3 -52 -8 -111 -10
-130 -2 -19 -7 -71 -10 -115 -3 -44 -8 -102 -11 -130 -3 -27 -7 -70 -9 -95 -3
-45 -21 -194 -31 -260 -2 -19 -7 -53 -10 -75 -2 -22 -7 -52 -9 -66 -3 -15 -7
-47 -10 -70 -5 -43 -9 -64 -41 -224 -8 -44 -18 -91 -20 -105 -9 -45 -55 -224
-76 -295 -40 -134 -154 -413 -164 -402 -3 3 -6 27 -19 152 -3 28 -7 69 -10 93
-9 78 -14 127 -20 192 -3 36 -8 83 -10 105 -3 22 -7 72 -10 110 -3 39 -8 93
-10 120 -2 28 -7 82 -10 120 -3 39 -7 97 -10 130 -7 93 -16 232 -20 315 -2 41
-6 120 -10 175 -10 192 -23 636 -25 900 -2 218 17 809 34 1070 7 104 18 241
21 275 2 19 6 67 10 105 3 39 8 88 10 110 2 22 7 65 10 95 3 30 7 71 10 90 3
19 8 60 11 90 3 30 7 66 9 80 2 14 7 50 10 80 3 30 8 65 11 78 2 12 7 44 10
70 3 26 7 54 9 62 3 8 7 35 10 60 3 25 8 59 11 75 3 17 8 44 10 60 3 17 6 39
8 50 2 11 7 40 10 65 4 25 9 52 11 60 2 8 7 31 10 50 3 19 8 46 10 60 3 14 8
36 10 50 3 14 8 41 11 60 3 19 10 55 16 80 14 63 17 81 23 112 5 25 28 132 40
183 3 11 7 29 9 40 2 11 9 40 15 65 17 72 16 72 -72 115 -45 22 -83 43 -85 48
-2 4 -7 7 -12 7 -10 0 -108 59 -254 154 -135 88 -274 171 -307 186 -13 5 -31
14 -39 20 -22 14 -153 76 -188 88 -24 8 -35 7 -54 -6 -21 -14 -83 -77 -115
-116 -16 -18 -98 -179 -142 -276 -87 -191 -186 -301 -311 -345 -45 -16 -180
-32 -180 -22 0 3 11 36 24 74 21 61 32 95 43 143 21 91 21 244 0 340 -11 52
-67 169 -116 241 l-57 84 -354 -2 c-293 -2 -735 -9 -735 -12 0 -1 -85 -3 -190
-6 -182 -5 -290 -9 -545 -20 -264 -12 -460 -22 -580 -30 -41 -3 -124 -8 -185
-11 -60 -3 -130 -8 -155 -9 -25 -2 -85 -6 -135 -9 -131 -9 -222 -15 -290 -21
-126 -10 -202 -16 -265 -20 -36 -3 -90 -7 -120 -10 -30 -3 -86 -8 -125 -11
-38 -3 -86 -7 -105 -9 -19 -1 -69 -6 -110 -9 -82 -8 -151 -14 -220 -21 -25 -2
-74 -7 -110 -10 -36 -3 -83 -8 -105 -10 -22 -2 -66 -7 -97 -10 -32 -3 -77 -8
-100 -10 -24 -2 -68 -7 -98 -10 -30 -3 -71 -7 -90 -10 -19 -3 -60 -7 -90 -10
-58 -5 -123 -13 -177 -20 -18 -3 -58 -7 -90 -10 -32 -3 -69 -8 -83 -10 -23 -3
-76 -10 -155 -19 -16 -2 -52 -7 -80 -11 -83 -11 -108 -14 -168 -20 -32 -4 -68
-8 -80 -11 -12 -2 -43 -6 -69 -9 -26 -2 -60 -7 -75 -9 -34 -6 -97 -15 -148
-21 -21 -3 -50 -7 -64 -10 -27 -4 -88 -13 -138 -20 -15 -2 -57 -8 -93 -14 -36
-5 -85 -13 -110 -16 -25 -3 -52 -8 -60 -10 -8 -2 -37 -6 -65 -10 -27 -3 -57
-8 -65 -10 -8 -2 -37 -6 -63 -9 -27 -3 -52 -8 -55 -10 -4 -2 -31 -7 -61 -10
-29 -4 -56 -8 -60 -10 -3 -2 -28 -7 -56 -10 -27 -3 -62 -8 -77 -11 -16 -3 -38
-7 -50 -9 -13 -2 -61 -11 -108 -19 -47 -9 -98 -18 -115 -21 -16 -2 -55 -9 -85
-15 -79 -15 -122 -23 -145 -26 -11 -2 -54 -10 -95 -19 -89 -18 -118 -24 -185
-35 -27 -5 -79 -16 -115 -24 -36 -9 -85 -18 -109 -22 -23 -3 -54 -10 -67 -16
-14 -5 -28 -8 -32 -7 -4 1 -29 -3 -57 -10 -27 -6 -61 -14 -75 -16 -41 -7 -151
-32 -405 -92 -132 -31 -244 -57 -250 -58 -5 -1 -19 -5 -30 -9 -11 -3 -31 -8
-45 -11 -14 -3 -34 -7 -45 -10 -11 -3 -63 -16 -115 -30 -122 -31 -241 -63
-306 -82 -28 -8 -60 -16 -70 -19 -11 -2 -50 -13 -89 -25 -38 -12 -77 -23 -85
-25 -8 -2 -82 -24 -165 -50 -82 -26 -154 -48 -160 -49 -5 -2 -17 -6 -25 -9 -8
-3 -94 -31 -190 -62 -236 -77 -534 -186 -831 -306 -135 -54 -251 -99 -257 -99
-7 0 -12 -4 -12 -10 0 -5 -8 -10 -17 -10 -10 0 -40 -12 -68 -25 -27 -14 -54
-25 -58 -25 -5 0 -25 -7 -45 -16 -21 -9 -46 -20 -57 -24 -11 -5 -40 -18 -65
-28 -25 -11 -85 -36 -135 -57 -165 -68 -258 -108 -265 -115 -3 -3 -12 -6 -20
-8 -56 -12 -1679 -728 -1704 -753 -6 -5 -15 -9 -22 -9 -7 0 -60 -22 -118 -50
-58 -27 -108 -50 -110 -50 -2 0 -50 -22 -107 -49 -57 -27 -162 -76 -234 -109
-71 -33 -179 -83 -240 -112 -60 -29 -182 -86 -269 -127 -88 -41 -279 -134
-425 -205 -146 -72 -313 -153 -371 -180 -58 -28 -108 -55 -112 -61 -4 -7 -8
-9 -8 -5 0 8 -272 -129 -600 -301 -91 -47 -169 -88 -175 -90 -5 -2 -104 -54
-220 -116 -115 -62 -246 -131 -290 -155 -44 -23 -89 -48 -100 -55 -11 -6 -60
-33 -110 -60 -49 -26 -95 -53 -100 -59 -6 -6 -17 -12 -25 -14 -15 -3 -330
-181 -647 -365 -90 -52 -159 -98 -155 -102 4 -5 2 -5 -4 -2 -7 4 -28 -4 -48
-18 -20 -14 -39 -25 -41 -25 -3 0 -48 -27 -235 -140 -144 -87 -271 -166 -292
-181 -15 -10 -29 -19 -32 -19 -4 0 -75 -43 -146 -90 -8 -5 -37 -24 -65 -42
-290 -184 -539 -349 -552 -366 -7 -9 -13 -13 -13 -9 0 4 -26 -11 -57 -33 -32
-22 -111 -76 -177 -121 -65 -44 -124 -85 -130 -90 -6 -5 -54 -39 -106 -76 -52
-37 -97 -69 -100 -73 -3 -3 -31 -23 -63 -45 -32 -22 -62 -45 -66 -53 -4 -8
-10 -12 -13 -10 -6 3 -327 -235 -370 -276 -16 -14 -28 -23 -28 -20 0 4 -51
-36 -185 -145 -247 -200 -272 -220 -295 -241 -8 -8 -31 -27 -50 -42 -19 -15
-48 -39 -65 -53 -16 -15 -52 -45 -80 -68 -27 -23 -74 -64 -103 -91 -30 -26
-68 -60 -85 -75 -16 -14 -40 -35 -51 -46 -12 -11 -42 -38 -66 -60 -25 -22 -44
-43 -42 -47 1 -5 -3 -8 -9 -8 -11 0 -57 -41 -223 -202 -61 -58 -121 -115 -133
-126 -13 -10 -19 -22 -15 -26 4 -4 2 -6 -4 -4 -6 1 -43 -30 -83 -69 -40 -40
-71 -73 -69 -73 2 0 -46 -51 -107 -112 -112 -115 -285 -300 -346 -373 -40 -47
-38 -45 -110 -126 -107 -122 -169 -198 -169 -209 0 -5 -4 -10 -9 -10 -5 0 -28
-26 -52 -57 -50 -66 -62 -82 -106 -132 -18 -20 -33 -39 -33 -44 0 -9 24 6 250
157 96 64 182 121 190 126 16 11 194 124 220 140 8 5 60 37 115 70 55 34 107
65 115 70 8 6 32 19 52 30 21 11 38 25 38 31 0 6 5 7 10 4 6 -3 23 3 38 14 74
52 690 373 742 386 3 1 36 16 74 33 38 18 70 32 72 32 1 0 31 13 66 29 167 76
585 227 763 276 28 8 88 25 135 39 47 14 96 27 110 30 14 3 58 14 98 25 40 10
75 19 77 19 3 0 18 3 33 6 15 4 36 8 47 10 11 3 49 11 85 20 36 8 81 17 100
20 19 3 60 10 90 16 30 6 71 13 90 16 19 2 58 8 85 14 28 5 68 11 90 14 22 2
56 7 75 10 19 3 54 8 78 10 38 5 41 4 33 -12 -6 -9 -25 -33 -43 -53 -18 -20
-58 -64 -88 -99 -30 -34 -66 -75 -80 -90 -14 -15 -59 -64 -100 -110 -41 -45
-91 -99 -110 -119 -19 -21 -91 -97 -160 -171 -144 -153 -208 -220 -366 -381
-63 -64 -111 -119 -107 -123 5 -4 3 -6 -3 -4 -14 4 -80 -62 -76 -76 2 -6 0 -8
-3 -4 -9 8 -71 -52 -67 -64 1 -4 -2 -7 -7 -6 -12 4 -87 -74 -83 -87 2 -5 1 -7
-3 -3 -9 9 -45 -23 -39 -34 3 -5 1 -7 -3 -6 -12 4 -109 -93 -105 -105 1 -4 -1
-6 -6 -3 -10 6 -88 -75 -84 -87 1 -4 -2 -6 -6 -5 -12 4 -78 -64 -74 -76 2 -6
1 -8 -3 -4 -10 10 -45 -24 -38 -36 3 -6 2 -8 -2 -3 -5 4 -115 -98 -244 -227
-130 -128 -296 -292 -368 -364 -73 -71 -133 -135 -133 -141 0 -6 -4 -10 -8 -9
-11 4 -152 -136 -152 -151 0 -6 -4 -10 -9 -9 -5 2 -21 -10 -36 -27 -15 -16
-85 -89 -156 -161 -71 -72 -126 -134 -122 -138 5 -4 3 -6 -4 -4 -6 1 -35 -22
-64 -52 -28 -30 -93 -98 -143 -150 -50 -53 -136 -145 -191 -204 -55 -60 -109
-117 -119 -128 -11 -10 -17 -18 -14 -18 4 0 -11 -17 -33 -38 -21 -22 -36 -42
-31 -47 4 -5 2 -5 -5 -1 -6 3 -18 -2 -25 -12 -11 -17 -86 -103 -143 -166 -11
-13 -41 -47 -67 -77 -25 -30 -54 -64 -65 -75 -10 -12 -34 -40 -53 -63 -19 -23
-48 -56 -64 -74 -15 -18 -40 -48 -54 -67 -15 -19 -30 -37 -33 -40 -3 -3 -27
-30 -52 -62 l-46 -56 38 -110 c21 -60 41 -114 44 -119 3 -5 8 -20 11 -34 2
-13 12 -46 21 -74 10 -27 18 -55 19 -62 1 -7 5 -16 9 -19 4 -4 7 -15 7 -25 0
-10 5 -30 11 -46 7 -15 13 -35 14 -43 1 -8 19 -74 39 -147 20 -72 39 -141 41
-152 6 -24 3 -13 55 -206 22 -82 42 -159 45 -170 11 -48 50 -187 96 -340 86
-287 228 -659 289 -755 5 -8 23 -42 41 -75 17 -33 38 -67 45 -76 8 -8 14 -19
14 -22 0 -10 86 -133 141 -202 90 -112 333 -328 355 -317 4 2 10 -2 15 -9 4
-8 52 -36 105 -64 102 -53 104 -55 118 -135 2 -14 9 -45 14 -70 6 -25 13 -61
16 -80 3 -19 8 -46 11 -60 3 -14 9 -50 15 -80 6 -30 12 -65 14 -76 6 -27 16
-90 21 -129 3 -16 7 -41 10 -55 6 -29 17 -100 18 -117 0 -7 3 -13 6 -13 3 0 6
-12 6 -27 1 -34 15 -145 20 -153 2 -3 6 -32 9 -65 4 -33 8 -67 11 -75 2 -8 6
-37 10 -65 3 -27 8 -65 11 -82 2 -18 6 -48 8 -65 3 -18 8 -55 11 -83 4 -27 8
-61 10 -74 3 -14 7 -54 11 -90 3 -36 8 -74 10 -84 2 -10 6 -48 10 -85 3 -36 7
-74 9 -84 3 -16 15 -130 20 -188 1 -14 5 -56 9 -95 9 -90 14 -135 21 -215 3
-36 7 -90 10 -120 5 -58 12 -144 20 -250 3 -36 7 -94 10 -130 13 -176 27 -403
40 -655 4 -66 8 -154 10 -195 13 -250 25 -559 40 -1090 8 -281 20 -935 30
-1675 3 -231 8 -521 10 -645 3 -124 7 -346 10 -495 3 -148 7 -337 10 -420 3
-82 7 -220 10 -305 3 -85 7 -202 10 -260 3 -58 7 -161 10 -230 l5 -125 -57
-61 c-32 -33 -92 -96 -133 -140 -144 -155 -315 -337 -365 -389 -27 -29 -133
-139 -235 -245 -186 -194 -220 -229 -515 -530 -88 -90 -159 -167 -157 -172 1
-4 -2 -7 -6 -6 -11 4 -78 -63 -74 -75 1 -4 -1 -6 -6 -3 -11 6 -43 -30 -34 -39
4 -4 2 -5 -3 -4 -6 2 -111 -100 -235 -225 -124 -126 -272 -276 -330 -334 -58
-58 -104 -109 -102 -113 1 -5 -1 -8 -5 -7 -11 4 -79 -62 -75 -73 1 -5 -2 -8
-6 -7 -4 2 -27 -17 -51 -42 -24 -25 -145 -148 -270 -274 -124 -126 -225 -233
-223 -238 1 -4 -2 -7 -7 -6 -5 2 -25 -15 -46 -37 -21 -22 -94 -98 -164 -170
-69 -71 -125 -133 -123 -137 1 -4 -1 -7 -5 -6 -8 3 -96 -87 -387 -393 -348
-368 -461 -491 -458 -500 1 -5 -1 -8 -6 -7 -4 2 -25 -17 -47 -41 -22 -25 -53
-59 -70 -76 -24 -25 -129 -141 -190 -209 -5 -7 -32 -36 -60 -66 -49 -54 -163
-183 -198 -224 -16 -18 -68 -78 -132 -151 -11 -12 -27 -31 -36 -41 -8 -11 -62
-73 -118 -139 -57 -66 -124 -144 -150 -174 -25 -30 -53 -64 -61 -75 -8 -12
-19 -26 -25 -32 -20 -21 -100 -117 -114 -137 -8 -12 -24 -30 -35 -41 -19 -19
-19 -19 8 -40 123 -95 239 -203 301 -282 17 -20 35 -42 40 -48 33 -34 157
-236 217 -354 39 -75 70 -139 70 -142 0 -3 6 -21 15 -40 36 -87 122 -351 138
-428 2 -9 10 -46 19 -82 8 -36 18 -83 21 -105 4 -22 8 -47 10 -55 20 -73 59
-397 59 -488 0 -17 3 -32 6 -32 13 0 1 -590 -15 -725 -3 -22 -7 -62 -10 -90
-3 -27 -7 -67 -10 -87 -3 -21 -8 -57 -11 -80 -3 -24 -14 -92 -25 -153 -11 -60
-23 -123 -25 -140 -3 -16 -10 -48 -16 -70 -10 -39 -12 -49 -24 -112 l-6 -31
114 3 c114 3 258 28 258 46 0 6 4 8 9 5 9 -6 76 39 104 72 10 11 29 46 42 79
20 48 24 74 23 158 -1 55 -4 113 -9 130 -4 16 -10 46 -12 65 -3 19 -14 76 -25
125 -12 50 -24 105 -27 124 -3 19 -7 37 -9 40 -2 3 -7 31 -11 61 -4 30 -9 59
-13 64 -10 17 -11 246 -1 279 6 17 12 41 14 51 3 11 9 24 15 30 5 5 10 16 10
24 0 14 6 21 68 85 55 57 227 135 230 104 0 -6 5 -30 11 -52 5 -22 12 -58 15
-80 4 -22 10 -62 16 -90 10 -57 18 -113 27 -205 10 -104 11 -115 12 -115 1 0
4 -38 6 -85 2 -47 6 -123 9 -170 3 -47 8 -139 11 -205 6 -128 11 -194 20 -290
29 -313 111 -560 243 -725 59 -74 71 -83 87 -70 8 7 12 16 9 21 -3 5 -1 9 4 9
11 0 37 59 51 114 14 56 6 211 -18 346 -25 136 -29 156 -35 178 -3 9 -7 33
-10 52 -3 19 -8 46 -11 60 -35 166 -38 360 -6 467 16 56 72 152 99 169 22 14
31 15 61 4 20 -6 53 -23 73 -36 21 -13 42 -24 48 -24 5 0 10 -3 10 -7 0 -5 17
-26 37 -48 61 -67 122 -223 139 -352 2 -21 7 -49 9 -63 8 -44 22 -227 30 -388
7 -146 19 -281 30 -342 22 -123 18 -104 38 -171 23 -75 56 -149 67 -149 6 0
10 -7 10 -15 0 -40 133 -140 215 -161 26 -6 26 -6 20 37 -23 145 -30 277 -30
534 0 232 6 369 20 445 2 14 7 45 10 70 12 103 16 127 26 163 5 20 7 42 4 47
-3 6 -1 10 6 10 7 0 10 2 7 5 -3 3 3 40 14 83 10 42 21 88 24 102 9 47 125
385 153 445 15 33 43 94 62 135 19 41 53 111 76 154 24 44 43 83 43 88 0 4 5
8 10 8 6 0 10 5 10 10 0 13 111 194 122 198 4 2 8 8 8 13 0 8 24 43 113 164
12 16 41 53 65 82 23 29 40 53 38 53 -2 0 10 15 28 33 17 18 63 68 101 112 39
43 89 97 112 119 23 22 39 45 36 51 -4 5 -3 7 2 3 4 -4 22 7 39 25 56 56 140
132 183 166 23 19 40 38 36 44 -3 6 -1 7 5 3 6 -3 18 4 26 16 9 12 16 19 16
15 0 -3 35 21 78 56 43 34 91 71 107 82 16 11 39 30 52 42 13 12 23 20 23 17
0 -2 11 3 25 12 23 15 27 15 58 -5 48 -30 90 -79 119 -141 22 -48 31 -76 45
-140 14 -66 18 -164 18 -411 l0 -286 30 8 c58 17 135 63 176 104 44 45 103
141 94 155 -3 5 -1 10 3 12 5 1 16 35 25 73 12 55 15 111 11 265 -2 107 -6
209 -9 225 -2 17 -6 55 -10 85 -3 31 -7 71 -10 90 -15 115 -20 206 -20 375 1
212 16 293 77 407 38 71 159 198 189 198 15 0 74 -79 101 -136 48 -101 58
-182 52 -414 -8 -307 -6 -370 15 -462 28 -123 104 -224 219 -290 29 -16 55
-29 57 -27 2 2 6 49 10 104 10 171 16 234 32 330 3 22 7 47 8 55 6 41 17 101
30 160 8 36 17 76 20 90 7 34 55 189 68 220 5 14 11 30 12 35 3 12 66 151 103
225 15 30 35 63 45 74 9 11 17 26 17 33 0 7 5 13 10 13 6 0 10 5 10 10 0 9 62
99 95 137 86 100 119 135 164 178 30 27 62 57 71 65 39 37 153 123 245 183 55
36 108 73 118 82 9 8 17 13 17 10 0 -2 33 14 73 36 117 64 408 204 467 224 3
1 16 6 30 12 67 29 133 53 135 51 2 -2 5 -16 8 -33 3 -16 10 -50 15 -75 6 -25
13 -69 17 -99 4 -30 8 -61 10 -70 4 -26 15 -138 21 -236 4 -49 8 -407 10 -795
2 -388 5 -727 8 -755 9 -116 20 -215 32 -297 4 -24 8 -53 9 -65 2 -12 6 -34 9
-50 3 -15 8 -43 11 -62 28 -168 134 -446 222 -580 79 -121 72 -148 72 266 0
337 5 525 15 607 3 17 8 58 12 91 5 33 8 72 9 88 0 15 3 27 6 27 4 0 10 21 14
48 23 157 143 384 241 457 15 11 32 25 38 30 18 18 86 55 100 55 21 0 26 -201
12 -465 -12 -226 -15 -516 -6 -565 4 -25 10 -61 13 -80 10 -75 53 -173 98
-224 50 -58 187 -114 226 -93 10 6 19 11 20 11 1 1 9 29 18 61 15 55 20 196
10 280 -2 17 -6 55 -9 85 -3 30 -8 64 -10 75 -7 39 -16 101 -22 160 -3 33 -8
69 -11 80 -11 53 -11 315 1 375 24 131 96 242 187 290 33 17 37 18 70 2 47
-23 129 -106 165 -167 61 -102 108 -275 130 -470 2 -22 6 -59 9 -82 5 -41 7
-65 20 -178 3 -27 8 -68 11 -90 2 -22 6 -51 8 -65 21 -173 98 -430 128 -430 4
0 8 -7 8 -15 0 -17 92 -114 133 -140 l27 -17 17 38 c9 22 18 44 19 49 1 6 7
30 12 54 23 96 6 285 -48 551 -11 52 -21 106 -24 120 -2 14 -7 36 -10 50 -10
42 -21 114 -31 205 -17 142 5 296 53 375 20 33 114 122 121 115 44 -45 161
-255 175 -317 4 -16 11 -28 17 -28 6 0 8 -4 5 -8 -3 -5 2 -33 10 -63 8 -30 17
-67 19 -84 3 -16 7 -41 10 -55 24 -109 34 -272 40 -680 6 -345 7 -363 30 -534
15 -107 58 -251 106 -351 32 -68 118 -196 135 -202 25 -8 95 177 111 293 10
74 10 327 0 414 -14 116 -29 213 -42 280 -2 13 -7 42 -10 65 -3 22 -8 47 -10
55 -2 8 -6 31 -9 50 -3 19 -8 46 -11 60 -11 53 -25 137 -30 179 -3 23 -7 46
-9 50 -10 16 -21 190 -21 331 1 186 19 288 75 407 21 45 36 84 34 87 -2 3 -1
4 3 1 3 -3 18 12 32 33 13 20 45 58 69 84 l45 47 28 -24 c16 -13 53 -33 83
-44 103 -38 182 -48 377 -47 l187 1 26 -47 c15 -27 30 -48 34 -48 4 0 8 -8 9
-17 1 -10 13 -50 27 -89 13 -40 27 -85 30 -100 3 -16 17 -83 31 -149 13 -66
27 -131 29 -145 12 -66 48 -186 77 -256 37 -89 114 -177 187 -214 47 -23 176
-52 198 -43 21 8 24 18 62 208 21 103 29 150 38 220 2 22 7 51 9 65 5 32 16
134 20 180 8 106 18 264 20 325 4 83 4 703 0 825 -3 105 -16 444 -20 525 -2
33 -6 121 -9 195 -3 74 -9 187 -11 250 -7 141 -13 303 -20 520 -7 195 -7 655
-1 790 8 160 17 303 21 340 4 33 6 51 20 180 3 30 8 69 11 85 3 17 7 39 8 50
2 11 6 40 10 65 4 25 9 56 12 70 2 14 15 70 29 125 14 55 28 109 30 119 27
121 121 345 202 484 24 41 26 42 42 25 50 -55 68 -164 37 -237 -8 -20 -13 -36
-10 -36 3 0 -3 -15 -12 -32 -53 -102 -116 -259 -133 -333 -9 -38 -15 -101 -15
-140 2 -96 2 -95 20 -95 22 0 174 -61 174 -70 0 -4 12 -13 28 -19 29 -12 134
-116 167 -166 71 -106 136 -277 160 -425 3 -19 8 -42 10 -50 2 -8 6 -37 9 -65
4 -27 8 -70 11 -95 14 -121 16 -208 20 -625 3 -434 7 -552 21 -680 10 -86 10
-84 24 -150 7 -33 14 -67 15 -75 2 -8 4 -16 5 -17 2 -2 3 -6 4 -10 17 -77 106
-231 118 -206 2 5 3 37 1 73 -6 162 -7 257 -1 287 14 73 61 101 153 90 39 -5
95 -26 71 -27 -5 0 -4 -6 2 -13 6 -7 14 -28 17 -47 3 -18 8 -36 10 -39 3 -6
13 -62 21 -121 6 -47 13 -135 19 -240 6 -107 8 -130 20 -235 11 -102 57 -255
77 -255 5 0 6 -4 3 -10 -9 -14 73 -99 118 -122 21 -10 40 -18 42 -16 2 2 10
48 18 103 14 94 16 367 3 435 -2 14 -7 49 -10 78 -4 29 -22 144 -40 255 -19
111 -37 218 -40 237 -16 96 -21 167 -20 290 1 146 15 218 61 320 25 54 29 57
57 53 40 -6 104 -38 138 -68 42 -36 102 -135 138 -227 50 -125 107 -232 148
-274 40 -42 117 -80 178 -89 l41 -6 46 93 c47 96 63 134 117 278 18 47 36 94
41 105 4 11 10 27 11 35 2 8 6 17 9 20 4 3 16 25 29 50 86 171 219 278 379
305 32 6 66 -8 99 -41 19 -19 43 -80 58 -149 53 -231 102 -280 260 -260 50 6
56 9 73 43 31 62 77 218 97 330 2 12 6 34 9 50 3 15 7 47 10 72 3 25 8 54 10
66 5 22 8 43 25 169 6 44 13 89 14 100 14 90 19 115 27 150 5 22 12 51 15 65
16 83 73 226 121 305 30 48 128 139 180 165 26 14 50 25 53 25 3 1 22 7 43 14
31 10 41 10 53 0 33 -27 51 -110 59 -267 6 -122 10 -157 26 -227 14 -59 55
-145 70 -145 5 0 8 -4 5 -9 -6 -9 56 -61 73 -61 6 0 11 -4 11 -9 0 -5 10 -11
22 -14 13 -3 48 -11 78 -19 84 -20 93 -18 102 22 8 38 3 497 -7 595 -14 138
-14 560 0 635 20 114 25 133 41 164 8 16 14 35 14 43 0 7 4 13 10 13 5 0 12
11 16 25 8 32 39 41 71 20 90 -59 171 -207 198 -360 3 -16 7 -43 10 -60 3 -16
8 -41 10 -55 3 -14 8 -43 11 -65 3 -22 7 -53 9 -70 3 -16 7 -50 10 -75 3 -25
8 -52 10 -60 2 -8 7 -40 10 -70 4 -30 18 -93 32 -140 58 -202 132 -292 282
-343 l40 -14 42 61 c103 149 157 195 232 201 56 4 79 -7 227 -105 117 -77 250
-150 276 -150 15 0 63 70 114 165 130 245 156 288 209 347 51 58 138 114 207
134 80 23 227 27 279 6 96 -38 206 -149 256 -259 28 -61 76 -210 82 -258 4
-22 13 -71 21 -109 8 -38 13 -73 10 -78 -3 -4 -1 -8 3 -8 5 0 8 -12 7 -27 0
-15 3 -47 8 -72 5 -25 11 -66 14 -91 2 -25 7 -52 9 -60 2 -8 7 -33 10 -55 3
-23 8 -52 10 -65 3 -14 10 -45 15 -70 16 -78 18 -83 49 -174 16 -48 38 -100
48 -115 10 -14 24 -38 33 -53 37 -65 143 -158 180 -158 48 0 189 87 182 112
-1 5 2 7 7 4 15 -10 61 79 81 157 15 59 18 98 15 217 -2 80 -6 156 -9 170 -3
14 -7 45 -10 70 -12 105 -17 146 -21 170 -22 119 -24 359 -5 441 31 131 111
237 216 285 92 42 94 41 132 -55 35 -87 86 -274 96 -352 3 -24 8 -60 11 -79
22 -141 29 -294 26 -615 -4 -600 -4 -650 3 -762 4 -61 9 -125 11 -143 9 -67
16 -116 20 -130 2 -8 7 -28 9 -45 3 -16 10 -45 15 -62 5 -18 8 -33 5 -33 -2 0
2 -13 11 -30 8 -16 16 -33 16 -37 6 -39 60 -155 107 -228 76 -119 264 -285
305 -270 23 9 113 190 118 237 0 4 5 22 10 40 29 104 32 423 4 528 -2 8 -6 35
-9 60 -3 25 -8 54 -10 65 -4 21 -35 169 -41 195 -2 8 -22 89 -45 180 -23 91
-43 172 -45 180 -2 8 -13 51 -25 95 -11 44 -22 89 -25 100 -2 11 -6 29 -9 40
-18 68 -67 287 -72 325 -7 52 -8 61 -17 115 -13 78 -25 357 -17 385 1 3 3 16
5 30 1 14 6 41 10 60 4 19 8 46 10 60 13 95 109 281 182 353 23 23 39 46 36
52 -4 5 -3 7 1 3 4 -3 16 1 25 10 37 35 117 92 129 92 12 0 48 -51 67 -96 47
-112 52 -189 45 -669 -3 -241 -5 -227 28 -263 55 -63 119 -96 302 -154 52 -17
116 -42 143 -55 56 -30 147 -109 147 -129 0 -8 5 -14 10 -14 6 0 10 -5 10 -10
0 -6 9 -29 19 -53 18 -40 26 -63 36 -104 3 -10 16 -63 30 -118 14 -55 28 -113
30 -130 3 -16 10 -43 15 -60 5 -16 11 -43 14 -60 2 -16 9 -50 15 -75 11 -48
14 -66 36 -202 3 -18 8 -40 10 -48 2 -8 6 -35 9 -60 3 -25 8 -55 10 -67 3 -11
7 -43 11 -70 4 -26 9 -59 11 -73 2 -14 7 -47 10 -75 3 -27 7 -63 10 -80 2 -16
6 -54 9 -83 2 -30 7 -75 10 -100 3 -26 8 -78 11 -117 2 -38 6 -90 9 -115 5
-61 14 -191 22 -330 8 -154 7 -1060 -1 -1230 -4 -74 -9 -175 -11 -225 -6 -130
-21 -375 -30 -505 -9 -138 -16 -227 -21 -280 -2 -30 -7 -86 -9 -125 -3 -38 -7
-92 -10 -119 -2 -27 -7 -81 -10 -120 -3 -39 -7 -91 -10 -115 -2 -24 -6 -78
-10 -120 -11 -124 -13 -152 -20 -226 -4 -38 -9 -92 -11 -120 -2 -27 -6 -77 -9
-110 -6 -77 -14 -168 -20 -226 -2 -26 -7 -80 -10 -120 -3 -41 -8 -96 -10 -124
-2 -27 -7 -84 -10 -125 -3 -41 -8 -95 -10 -120 -5 -48 -12 -143 -21 -275 -3
-44 -7 -98 -8 -120 -4 -48 -18 -264 -21 -320 -1 -22 -6 -112 -10 -200 -4 -88
-9 -182 -10 -210 -22 -435 -22 -1204 1 -1570 1 -27 5 -97 8 -155 4 -58 8 -123
10 -145 2 -22 7 -74 10 -115 4 -41 9 -102 12 -135 3 -33 7 -73 9 -90 3 -16 7
-55 10 -85 14 -155 32 -260 45 -260 16 0 155 158 188 213 70 117 129 302 148
467 2 19 6 54 8 76 8 65 15 205 21 379 12 328 21 426 59 584 18 76 74 210 108
256 42 57 114 125 133 125 39 0 89 -50 101 -101 2 -10 6 -29 9 -40 10 -47 6
-181 -10 -304 -2 -16 -6 -89 -9 -161 -6 -150 1 -174 54 -170 16 1 30 -1 30 -4
0 -3 10 -7 23 -8 45 -3 171 -51 231 -88 109 -67 219 -191 285 -323 61 -122
145 -394 175 -566 2 -16 9 -55 15 -85 17 -92 23 -124 26 -140 1 -8 5 -28 8
-45 7 -31 17 -86 22 -120 15 -97 72 -324 107 -428 29 -89 93 -237 107 -247 3
-3 15 -21 25 -40 45 -82 197 -230 235 -230 22 1 108 83 159 151 38 51 109 189
117 228 2 9 10 43 18 76 8 33 15 67 15 75 0 8 3 35 7 60 13 78 7 374 -9 455
-2 12 -7 48 -11 80 -4 33 -9 69 -11 80 -8 41 -23 131 -28 165 -3 19 -8 46 -11
60 -8 41 -44 232 -50 270 -3 19 -8 42 -10 50 -2 8 -7 35 -10 60 -3 25 -8 56
-10 70 -35 193 -49 423 -34 557 24 221 104 368 256 474 46 32 141 79 159 79
14 0 47 -81 69 -164 12 -48 29 -189 27 -231 0 -5 -3 -59 -7 -120 -20 -309 -4
-400 97 -539 38 -53 48 -58 120 -61 73 -3 118 10 156 45 50 45 64 84 127 340
24 99 88 165 171 175 28 4 34 2 34 -14 0 -11 4 -22 9 -26 24 -14 85 -258 98
-385 14 -135 7 -485 -12 -625 -2 -16 -7 -61 -11 -100 -4 -38 -8 -77 -9 -85 -1
-8 -5 -40 -9 -70 -4 -30 -9 -66 -11 -80 -2 -14 -6 -45 -9 -70 -3 -25 -10 -80
-16 -124 -5 -43 -7 -82 -4 -87 3 -5 1 -9 -3 -9 -5 0 -9 -10 -10 -22 0 -23 -12
-146 -19 -203 -2 -16 -6 -124 -8 -240 -5 -236 4 -327 45 -489 24 -95 94 -247
145 -317 l37 -50 24 23 c90 83 176 271 213 468 10 52 13 73 25 153 12 90 18
288 20 747 2 278 6 525 9 550 2 25 7 65 11 90 3 25 8 64 10 87 3 23 12 72 20
110 9 37 18 78 21 91 13 62 100 263 117 270 4 2 7 8 7 14 0 5 12 26 27 46 78
106 260 255 281 229 18 -24 67 -157 76 -210 3 -15 7 -35 10 -45 24 -82 35
-247 41 -607 4 -244 7 -329 20 -495 7 -90 27 -189 57 -280 24 -73 72 -169 94
-186 8 -6 14 -15 14 -20 0 -27 184 -144 227 -144 12 0 13 18 7 103 -3 56 -8
138 -9 182 -2 44 -7 168 -12 275 -8 210 -8 1761 1 2105 3 116 8 427 11 693 2
266 6 487 8 490 6 15 -8 1064 -18 1272 -7 152 -17 358 -20 400 -2 25 -6 86 -9
135 -7 92 -12 151 -21 240 -3 28 -7 71 -10 98 -11 107 -18 163 -31 262 -4 28
-8 57 -9 65 -8 63 -43 271 -60 360 -22 114 -89 401 -121 515 -9 33 -17 65 -18
70 -3 15 -53 176 -91 295 -29 90 -68 204 -155 445 -25 70 -95 252 -118 305 -6
14 -27 66 -47 117 -20 51 -43 109 -52 130 -9 21 -17 40 -18 43 -2 7 -17 42
-65 155 -48 113 -63 148 -65 155 -1 3 -9 23 -19 45 -10 22 -33 78 -53 125 -54
133 -58 140 -64 140 -3 0 -6 6 -6 13 0 13 -134 339 -142 347 -4 3 -7 12 -9 20
-2 8 -43 116 -92 240 -117 297 -276 742 -294 825 -4 18 -38 129 -52 172 -7 23
-16 52 -18 65 -3 13 -9 38 -15 57 -13 43 -98 406 -105 446 -2 17 -16 95 -29
175 -22 127 -39 253 -42 300 0 8 -3 20 -5 25 -3 6 -5 28 -5 50 0 46 -2 46 110
13 241 -70 461 -227 602 -428 100 -141 227 -447 262 -630 6 -30 12 -64 15 -75
20 -91 38 -186 51 -280 2 -11 8 -49 14 -85 10 -63 18 -123 26 -202 3 -21 7
-49 9 -62 4 -21 8 -51 20 -156 12 -94 31 -225 41 -270 3 -14 7 -41 9 -60 6
-50 33 -178 62 -295 14 -55 27 -107 29 -115 23 -99 165 -409 191 -417 30 -10
96 135 109 242 10 77 10 284 -1 450 -17 282 -4 541 27 561 5 3 9 12 9 20 0 31
62 105 113 134 29 16 59 30 67 30 44 0 165 -257 186 -395 9 -56 13 -485 5
-500 -3 -5 -6 -16 -6 -25 -11 -119 -17 -175 -20 -193 -2 -12 -6 -49 -10 -82
-4 -33 -9 -76 -11 -95 -15 -136 -20 -363 -10 -443 25 -197 96 -339 216 -428
19 -14 50 -34 69 -43 32 -17 35 -17 75 4 85 43 164 144 182 231 6 33 17 130
17 154 0 25 -13 171 -18 205 -8 51 -17 103 -22 124 -3 11 -9 41 -13 66 -5 25
-15 74 -24 110 -8 36 -17 79 -20 95 -3 17 -12 68 -20 115 -29 162 -35 299 -15
375 5 22 11 48 14 58 9 39 62 121 97 151 62 54 116 76 173 71 100 -7 146 -25
263 -101 113 -74 197 -115 246 -121 61 -7 161 -7 190 1 23 6 24 9 15 34 -12
31 -225 870 -234 921 -3 19 -8 38 -11 42 -2 5 -13 46 -24 91 -10 46 -26 111
-34 145 -9 34 -18 77 -21 94 -3 18 -7 35 -9 38 -3 5 -55 215 -81 331 -2 8 -15
60 -29 115 -14 55 -27 111 -30 125 -3 14 -39 162 -81 330 -42 168 -78 312 -80
320 -2 8 -11 43 -20 77 -9 35 -18 71 -20 80 -2 10 -23 88 -45 173 -23 85 -43
162 -45 170 -2 8 -20 74 -40 145 -20 72 -38 137 -40 145 -2 8 -33 119 -70 245
-37 127 -68 235 -69 240 -12 55 -212 651 -246 730 -4 11 -22 56 -38 100 -17
44 -69 184 -117 310 -47 127 -88 237 -91 245 -8 29 -50 145 -56 155 -6 11
-115 342 -143 435 -13 45 -36 128 -61 220 -29 108 -65 280 -79 375 -2 11 -6
34 -9 50 -6 35 -12 83 -23 185 -15 148 -6 590 13 622 2 3 7 28 10 54 3 27 8
52 10 56 3 4 7 18 9 30 12 61 28 118 33 118 23 -1 64 -60 80 -116 15 -51 21
-130 26 -349 5 -181 14 -239 47 -311 24 -50 84 -92 141 -100 44 -5 57 14 74
106 2 14 7 36 10 49 3 13 7 44 10 70 4 40 22 130 38 194 5 18 40 72 63 95 22
23 77 39 127 38 l50 -1 27 -55 c57 -116 96 -272 115 -455 14 -133 15 -167 29
-685 8 -274 16 -414 29 -488 6 -33 20 -117 21 -127 1 -5 5 -26 10 -45 5 -19 9
-37 10 -40 29 -119 98 -251 172 -329 35 -36 63 -63 63 -59 0 4 12 -4 26 -17
26 -24 53 -33 55 -17 0 4 3 43 7 87 8 104 8 506 -1 615 -6 78 -9 111 -22 240
-3 25 -7 56 -9 70 -3 14 -8 54 -11 90 -3 36 -7 76 -9 90 -3 14 -7 48 -11 75
-13 100 -12 96 -30 260 -18 169 -25 280 -29 460 -4 167 0 225 15 225 19 0 109
47 212 111 141 88 213 113 335 113 l94 1 31 -36 c18 -19 41 -46 52 -60 34 -40
150 -219 191 -294 21 -38 42 -72 46 -73 4 -2 6 -8 3 -13 -3 -4 4 -27 15 -49
44 -86 117 -330 136 -455 4 -27 9 -57 10 -65 22 -109 22 -469 0 -620 -2 -14
-7 -50 -11 -80 -6 -47 -35 -204 -49 -265 -15 -67 -29 -122 -33 -135 -3 -8 -7
-19 -8 -25 -2 -5 -8 -30 -16 -55 -7 -25 -13 -50 -15 -57 -12 -64 -229 -636
-253 -668 -4 -5 -14 -26 -21 -45 -8 -19 -48 -105 -89 -190 -41 -85 -75 -161
-74 -167 0 -7 -3 -13 -7 -13 -7 0 -84 -148 -83 -160 1 -3 -7 -16 -16 -30 -9
-14 -39 -68 -65 -120 -27 -52 -61 -117 -76 -145 -91 -167 -159 -303 -153 -309
3 -3 1 -6 -5 -6 -7 0 -22 -20 -34 -44 l-21 -44 21 -39 c11 -21 50 -90 87 -153
36 -63 113 -209 170 -325 58 -115 109 -215 114 -221 5 -7 8 -14 5 -16 -2 -3 7
-27 20 -54 30 -62 102 -228 111 -254 1 -3 6 -16 12 -30 122 -287 276 -718 488
-1365 197 -600 257 -779 264 -785 3 -3 6 -12 7 -20 1 -14 125 -372 144 -415 5
-11 22 -54 38 -95 55 -140 113 -285 127 -316 8 -16 30 -66 48 -110 62 -141
148 -320 226 -469 53 -99 198 -351 214 -370 4 -5 23 -35 42 -65 79 -125 81
-128 98 -110 29 30 37 81 33 209 -2 69 -11 180 -20 246 -8 66 -18 145 -22 175
-3 30 -7 71 -9 90 -4 31 -17 210 -17 235 -1 45 16 186 28 230 28 111 88 190
170 227 40 18 67 22 151 23 56 0 106 -4 112 -10 5 -5 14 -37 18 -70 9 -65 9
-473 0 -570 -3 -33 -9 -96 -13 -140 -4 -44 -8 -93 -10 -110 -20 -217 -26 -565
-11 -680 23 -189 101 -340 210 -410 24 -15 33 -16 75 -5 140 35 213 117 252
287 14 56 17 109 14 230 -1 87 -5 169 -8 183 -6 26 -12 70 -21 152 -2 26 -7
58 -10 70 -3 13 -7 39 -9 58 -4 31 -16 111 -31 210 -10 69 -18 145 -30 280 -6
65 -6 230 -1 280 23 212 90 349 215 438 32 23 37 24 97 9 14 -3 65 -37 82 -53
22 -23 60 -108 68 -154 9 -47 10 -252 2 -530 -5 -201 4 -275 42 -351 45 -87
116 -127 229 -126 58 0 64 3 86 31 28 37 52 95 66 156 27 117 31 184 30 575 0
326 27 467 112 580 35 47 119 93 183 101 35 5 43 2 56 -18 9 -13 25 -33 36
-46 20 -23 101 -178 106 -204 2 -7 6 -20 9 -28 9 -23 35 -150 42 -200 15 -121
18 -182 20 -545 2 -214 6 -401 8 -415 3 -14 11 -52 17 -85 26 -133 79 -235
163 -312 37 -34 115 -84 137 -88 3 0 28 -8 55 -17 52 -17 99 -28 141 -33 l25
-2 -7 81 c-10 119 -10 1030 -1 1181 16 253 40 535 52 615 5 31 16 122 20 175
2 22 5 40 5 40 1 0 3 14 5 30 9 66 16 113 25 169 5 32 9 61 8 65 0 3 1 8 2 11
2 5 4 18 14 95 4 28 9 57 11 65 2 8 7 35 10 60 4 25 11 64 16 88 5 23 12 59
14 80 3 20 10 57 15 82 5 25 12 61 15 80 4 19 11 55 16 80 6 25 13 59 16 75 2
17 16 82 29 145 14 63 27 124 30 135 2 11 8 43 14 70 12 57 12 58 40 180 12
50 23 99 25 110 2 11 9 38 15 60 28 110 102 423 104 440 1 12 5 25 8 30 3 6
17 62 32 125 15 63 30 122 33 130 2 8 4 16 4 17 0 2 5 17 10 35 6 18 12 44 15
58 3 14 12 50 20 80 8 30 16 62 18 70 2 8 29 114 61 235 31 121 58 227 60 235
2 8 24 101 50 205 26 105 48 199 51 209 2 10 8 33 13 50 26 87 26 87 -57 212
-6 10 -29 45 -50 78 -20 32 -56 85 -79 117 -24 33 -43 61 -43 64 0 3 -22 36
-50 75 -27 39 -50 72 -50 75 0 8 -64 100 -72 103 -4 2 -8 8 -8 13 0 5 -23 43
-50 85 -28 41 -50 80 -50 85 0 5 -4 9 -8 9 -5 0 -16 15 -25 33 -10 17 -28 50
-42 72 -14 22 -34 56 -45 75 -11 19 -25 42 -30 50 -82 126 -284 528 -332 660
-49 137 -107 314 -112 344 -3 18 -10 45 -15 59 -6 14 -12 43 -15 64 -3 21 -8
52 -11 68 -27 170 -27 382 0 515 3 14 8 38 10 54 3 16 10 37 16 47 5 11 8 19
5 19 -8 0 35 112 70 183 31 62 99 173 114 187 3 3 16 18 28 34 12 16 23 27 24
25 0 -2 2 -47 3 -99 2 -52 5 -122 8 -155 7 -66 12 -106 31 -215 3 -19 8 -46
10 -60 2 -14 11 -59 19 -100 15 -73 26 -133 33 -175 2 -11 6 -36 9 -55 19
-124 25 -349 12 -495 l-7 -80 40 45 c63 71 136 224 156 330 28 142 23 463 -10
627 -3 15 -8 52 -11 82 -4 30 -9 63 -11 75 -10 45 -24 123 -30 161 -6 47 -8
60 -17 100 -7 32 -14 76 -32 210 -4 28 -9 52 -10 55 -8 13 -20 222 -18 310 2
85 8 142 27 235 15 71 84 193 141 249 80 79 213 149 325 171 33 7 92 17 106
18 30 2 217 -163 261 -230 8 -12 18 -21 22 -18 4 2 8 -1 8 -8 0 -7 16 -35 35
-62 32 -45 151 -262 150 -275 0 -3 5 -18 12 -35 23 -55 79 -235 91 -295 42
-200 59 -304 70 -412 3 -29 7 -69 10 -88 14 -105 20 -310 20 -698 0 -237 2
-432 4 -432 2 0 27 14 56 30 71 41 128 100 172 177 36 65 89 215 98 276 2 18
6 41 9 53 2 12 7 45 11 75 3 30 8 70 10 89 7 51 15 180 20 295 3 55 7 120 9
145 3 25 8 77 11 115 5 60 15 132 29 220 26 158 94 311 176 392 102 101 226
144 405 139 92 -2 105 -5 162 -35 76 -41 130 -93 177 -169 33 -55 83 -186 91
-241 14 -89 17 -109 21 -136 6 -30 10 -214 18 -790 3 -165 7 -316 10 -335 3
-19 8 -51 10 -70 48 -347 196 -567 444 -655 l53 -19 -6 -41 c-3 -22 -8 -58
-11 -80 -3 -22 -10 -59 -15 -83 -5 -24 -7 -48 -4 -53 4 -5 2 -9 -3 -9 -5 0 -9
-6 -9 -12 0 -7 -6 -40 -12 -73 -7 -33 -15 -73 -18 -90 -3 -16 -20 -91 -39
-165 -19 -74 -37 -146 -40 -159 -3 -14 -7 -28 -10 -33 -3 -5 -7 -20 -10 -34
-5 -27 -107 -344 -123 -379 -4 -11 -19 -47 -31 -80 -101 -264 -254 -581 -425
-877 -55 -96 -204 -332 -225 -355 -5 -7 -10 -19 -10 -28 0 -16 48 -87 63 -93
4 -2 7 -10 7 -17 0 -7 3 -15 8 -17 25 -11 149 -257 207 -413 35 -95 98 -327
110 -404 3 -20 7 -48 10 -61 8 -41 15 -91 29 -205 31 -250 33 -758 4 -984 -3
-29 3 -33 44 -27 59 10 128 42 165 78 32 31 81 127 89 176 3 15 7 33 9 40 13
37 18 148 15 337 -7 419 -3 563 19 649 23 88 57 152 103 196 45 44 147 77 214
71 20 -2 168 -391 188 -491 2 -14 14 -59 24 -101 11 -41 22 -88 25 -105 3 -16
12 -69 20 -119 14 -81 21 -132 32 -220 3 -29 9 -99 22 -255 3 -41 6 -491 8
-1000 1 -509 5 -990 9 -1070 5 -80 9 -155 9 -167 1 -13 3 -23 5 -23 8 0 78 80
117 135 80 112 139 243 180 400 5 17 9 32 10 35 1 3 5 30 9 60 5 30 10 64 12
75 6 29 16 209 17 290 0 122 -17 377 -38 565 -7 67 -15 135 -20 190 -3 30 -7
78 -10 105 -15 151 -18 227 -18 385 0 154 5 253 18 318 2 11 6 37 9 58 12 71
48 188 79 254 17 36 31 71 30 77 0 7 3 13 7 13 5 0 20 21 35 46 59 100 196
236 307 303 l38 23 56 -54 c78 -74 138 -157 185 -255 23 -46 42 -89 43 -96 1
-6 7 -28 14 -47 6 -19 13 -46 16 -60 2 -14 7 -36 10 -50 35 -148 40 -489 12
-730 -3 -19 -7 -62 -11 -95 -6 -59 -12 -111 -20 -171 -2 -16 -6 -58 -10 -93
-4 -34 -8 -70 -10 -79 -1 -9 -6 -53 -10 -97 -4 -44 -9 -91 -11 -105 -8 -39
-14 -402 -8 -412 3 -5 8 -33 10 -61 4 -59 4 -59 29 -144 9 -35 21 -63 26 -63
5 0 6 -6 3 -13 -13 -35 131 -213 203 -251 26 -13 29 -13 29 2 1 10 7 49 13 87
21 124 26 164 37 315 6 81 6 480 -1 570 -13 193 -19 390 -20 635 0 331 6 406
52 595 30 129 89 282 143 374 22 37 40 72 40 77 0 5 4 9 8 9 4 0 16 15 27 33
31 53 78 109 183 221 63 65 63 66 91 51 53 -27 144 -120 198 -201 29 -45 53
-88 53 -97 0 -9 4 -18 9 -22 9 -5 55 -136 66 -185 19 -95 26 -128 30 -150 27
-145 27 -730 0 -1035 -2 -22 -6 -67 -9 -100 -3 -33 -8 -105 -12 -160 -3 -55
-8 -116 -9 -135 -6 -64 -18 -364 -17 -435 0 -80 10 -283 17 -335 17 -123 74
-332 95 -345 14 -9 123 60 181 115 82 77 157 255 176 419 15 130 2 469 -22
601 -3 14 -8 48 -11 75 -4 28 -8 55 -9 60 -1 6 -5 33 -9 60 -4 28 -10 61 -12
75 -3 14 -9 54 -15 90 -5 36 -12 77 -14 93 -8 43 -15 84 -20 120 -3 17 -7 43
-10 57 -3 14 -7 48 -11 75 -3 28 -8 59 -11 70 -2 11 -6 43 -8 70 -3 28 -7 66
-11 85 -3 19 -7 123 -9 230 -4 183 1 243 29 373 24 105 96 228 178 302 48 43
114 85 129 81 3 0 12 4 20 10 21 17 119 47 127 39 10 -10 9 -370 -2 -500 -15
-192 -15 -457 0 -532 21 -107 21 -108 42 -149 36 -71 103 -127 161 -135 23 -4
26 1 38 56 7 33 17 87 23 120 5 33 12 69 14 80 2 11 6 45 10 75 4 30 8 69 10
85 4 31 14 165 21 290 2 39 6 140 10 225 10 277 21 438 40 575 1 11 6 47 10
80 4 33 9 69 12 80 2 11 7 34 9 50 21 118 77 295 145 461 11 28 10 41 -10 105
-13 41 -27 79 -31 84 -3 6 -14 31 -24 57 -10 27 -22 48 -27 48 -6 0 -8 4 -5 9
3 5 -14 51 -38 103 -68 147 -136 325 -162 425 l-23 92 26 78 c14 43 27 85 28
93 1 8 5 22 8 30 18 51 60 273 72 380 25 227 28 299 28 635 0 287 -5 458 -18
647 -14 201 -17 236 -20 268 -2 19 -4 35 -5 35 0 0 -3 41 -5 90 -3 50 -7 106
-9 125 -3 19 -8 73 -11 120 -3 47 -8 108 -11 135 -3 28 -7 76 -9 107 -2 32 -6
86 -10 120 -6 65 -10 116 -21 273 -11 159 -12 187 -20 355 -17 351 -7 850 20
1040 3 19 8 53 11 75 3 22 7 49 9 60 10 51 20 112 22 130 1 11 9 47 17 80 73
285 126 419 245 615 44 73 54 87 117 165 17 21 29 41 28 46 -2 5 1 8 5 6 5 -1
41 30 80 69 40 40 72 70 72 67 0 -3 19 11 43 31 54 47 51 45 124 89 67 41 241
128 263 131 3 1 10 4 15 7 41 25 395 119 447 119 8 0 27 -16 42 -35 16 -19 33
-32 40 -28 6 3 8 3 4 -2 -8 -8 7 -24 98 -105 112 -99 164 -208 159 -332 -5
-124 -16 -201 -51 -368 -3 -14 -10 -43 -16 -65 -7 -22 -12 -42 -12 -45 -1 -3
-7 -23 -14 -45 -30 -99 -134 -461 -139 -484 -2 -14 -9 -46 -15 -71 -23 -104
-32 -326 -14 -395 4 -16 8 -34 9 -40 6 -27 67 -143 86 -165 69 -77 97 -104
145 -136 26 -16 27 -16 51 12 14 16 25 34 25 41 0 6 4 13 9 15 5 2 11 12 13
23 1 11 6 22 9 25 3 3 21 52 39 110 52 167 92 236 162 282 25 17 38 20 120 33
40 7 41 5 53 -95 13 -107 15 -126 19 -150 3 -14 7 -50 10 -80 11 -110 17 -176
22 -220 3 -25 7 -76 9 -115 3 -38 7 -99 10 -135 32 -404 32 -1040 1 -1460 -3
-36 -8 -99 -10 -140 -3 -41 -8 -100 -11 -130 -3 -30 -8 -77 -10 -105 -7 -70
-14 -127 -26 -225 -6 -47 -12 -96 -14 -110 -2 -14 -6 -45 -10 -70 -3 -25 -8
-61 -10 -80 -2 -19 -7 -47 -10 -62 -11 -59 -15 -84 -21 -123 -2 -22 -12 -74
-20 -115 -9 -41 -17 -86 -19 -100 -16 -119 -160 -701 -194 -785 -4 -11 -29
-85 -55 -164 -26 -78 -77 -216 -112 -305 -36 -88 -66 -165 -67 -171 -1 -5 -5
-14 -9 -20 -5 -5 -37 -68 -72 -140 -36 -71 -92 -176 -125 -232 -63 -106 -70
-122 -48 -120 23 2 102 -14 167 -35 156 -50 305 -159 401 -293 18 -25 36 -45
41 -45 4 0 7 -3 6 -7 -2 -5 14 -38 35 -75 20 -36 37 -69 37 -72 0 -3 11 -29
24 -58 21 -47 64 -169 70 -201 2 -7 6 -19 9 -27 8 -22 34 -135 51 -225 31
-159 37 -190 40 -215 2 -14 6 -43 10 -65 13 -77 32 -199 42 -275 2 -19 9 -60
14 -90 5 -30 12 -75 15 -100 3 -25 7 -52 10 -60 2 -8 7 -33 10 -55 4 -22 9
-50 11 -62 3 -13 6 -33 8 -45 2 -13 9 -41 14 -63 6 -22 13 -52 16 -66 17 -102
97 -332 148 -429 52 -99 137 -224 139 -204 0 5 2 18 5 29 22 110 22 427 -1
690 -5 59 -10 127 -19 275 -7 103 -7 427 -1 470 3 19 7 53 10 75 3 22 9 58 14
79 6 22 8 44 5 48 -3 4 0 8 5 8 6 0 11 7 11 16 0 26 59 139 96 182 39 47 114
95 172 113 35 10 46 9 75 -5 19 -9 40 -16 46 -16 22 0 119 -108 144 -162 29
-61 54 -155 64 -246 9 -72 7 -444 -2 -622 -15 -271 -9 -503 15 -641 6 -33 12
-70 14 -84 10 -58 69 -203 99 -243 63 -84 226 -207 246 -186 3 3 6 283 6 622
1 340 5 644 10 677 5 33 9 72 9 88 1 15 5 27 10 27 5 0 7 3 4 6 -10 10 41 184
74 253 44 93 96 157 167 209 22 16 37 33 33 37 -4 3 -2 5 3 4 6 -2 39 8 75 23
75 30 104 36 215 43 44 3 93 8 109 10 47 6 138 -14 177 -40 47 -31 89 -70 89
-83 0 -6 3 -12 8 -14 11 -5 58 -107 77 -168 9 -30 20 -64 25 -75 5 -11 18 -43
28 -70 38 -105 108 -185 180 -211 36 -12 37 -12 54 19 40 74 70 190 93 352 15
113 56 270 86 331 59 120 155 177 295 177 59 0 77 -4 104 -24 46 -33 118 -108
126 -131 3 -10 10 -18 15 -18 5 0 9 -4 9 -8 0 -12 164 -326 181 -347 84 -103
199 -167 199 -111 0 8 3 16 8 18 9 4 84 155 112 228 41 105 88 252 96 305 3
17 9 46 14 65 33 129 36 571 5 662 -2 7 -6 29 -9 48 -3 19 -8 44 -11 55 -2 11
-9 40 -16 65 -6 25 -12 52 -14 60 -14 65 -146 468 -175 535 -11 25 -50 135
-56 155 -2 8 -29 87 -59 175 -65 191 -66 196 -70 215 -5 27 -21 94 -30 127 -6
24 -64 299 -71 342 -3 18 -7 41 -9 50 -20 98 -45 234 -49 266 -4 23 -9 52 -12
65 -2 14 -6 37 -9 52 -2 15 -6 35 -9 45 -2 10 -7 38 -10 63 -3 25 -8 56 -11
70 -3 14 -7 41 -10 60 -3 19 -7 46 -10 60 -3 14 -8 45 -11 70 -3 25 -10 62
-15 82 -5 20 -8 40 -7 45 1 4 -4 42 -11 83 -16 95 -19 115 -26 170 -3 25 -7
52 -10 60 -2 8 -7 39 -10 69 -6 52 -8 64 -20 121 -2 14 -7 52 -11 85 -3 33 -9
64 -11 69 -3 4 -7 27 -8 50 -2 22 -10 86 -19 141 -8 55 -18 118 -21 140 -3 22
-7 51 -10 65 -2 14 -7 50 -10 80 -6 55 -12 95 -15 95 -1 0 -3 18 -5 40 -3 37
-21 177 -30 235 -2 14 -7 49 -10 79 -4 30 -8 61 -10 70 -1 9 -6 47 -10 84 -3
37 -8 76 -10 86 -2 10 -6 42 -10 72 -3 30 -8 65 -10 79 -2 14 -7 54 -10 89 -4
36 -8 79 -10 95 -2 17 -6 54 -10 81 -3 28 -7 66 -9 85 -3 19 -8 64 -11 100 -4
36 -8 79 -10 95 -3 17 -7 57 -10 90 -3 33 -8 77 -10 98 -3 21 -7 63 -10 95 -3
31 -7 78 -10 105 -3 26 -7 71 -10 100 -3 28 -7 72 -10 97 -4 42 -13 140 -20
235 -2 22 -6 67 -9 100 -3 33 -8 92 -11 130 -3 39 -8 95 -10 125 -3 30 -7 93
-10 140 -3 47 -8 112 -11 145 -9 115 -18 262 -39 640 -4 73 -12 231 -20 420
-34 804 -35 1881 0 2720 14 330 16 367 31 615 3 52 7 124 10 160 2 36 6 112 9
170 3 58 7 123 9 145 3 22 7 81 10 130 4 50 8 110 11 135 2 25 7 81 10 125 3
44 8 98 10 120 3 22 7 69 10 105 3 36 8 88 10 115 3 28 8 79 10 115 2 36 5 65
6 65 1 0 5 31 13 125 4 41 8 89 11 107 2 17 7 62 10 100 3 37 8 82 10 98 11
85 15 125 20 180 5 54 13 113 20 155 1 8 6 47 9 85 4 39 11 99 16 135 5 36 12
88 15 115 4 28 8 61 11 75 2 14 6 50 9 80 3 30 8 66 11 80 3 13 7 47 10 75 2
27 7 60 9 73 3 12 8 44 11 70 3 26 7 54 9 62 2 8 7 38 10 66 3 28 8 61 10 75
3 13 7 45 10 70 3 25 8 56 10 70 3 13 7 42 10 64 3 22 7 51 10 65 6 26 10 54
20 135 3 28 8 57 10 65 3 8 7 33 10 55 3 22 8 51 10 65 3 14 7 39 9 55 5 32
10 57 31 179 8 44 14 82 13 85 0 3 1 8 2 11 3 9 10 44 15 80 2 20 10 60 15 90
6 30 13 69 16 85 2 17 7 41 10 55 3 14 7 36 9 50 3 23 9 53 19 106 2 12 7 37
10 55 3 19 10 58 16 88 5 29 7 57 4 62 -3 5 -26 23 -52 41 -26 17 -49 34 -52
37 -3 3 -30 26 -60 51 -65 53 -136 116 -163 147 -11 12 -24 20 -29 17 -5 -3
-7 -1 -6 4 2 5 -15 29 -37 53 -22 24 -62 71 -88 104 -27 33 -54 67 -61 75 -7
9 -15 24 -19 34 -4 9 -11 15 -15 12 -5 -3 -9 0 -9 7 0 7 -21 44 -46 84 -26 39
-47 76 -47 82 0 5 -8 15 -17 20 -10 6 -15 11 -10 11 4 0 -5 24 -20 53 -15 28
-27 54 -28 57 0 3 -4 10 -8 17 -4 6 -22 51 -41 100 -18 48 -37 97 -41 108 -4
11 -9 25 -10 30 -2 6 -12 42 -23 80 -12 39 -23 81 -26 95 -2 14 -11 54 -20 90
-8 36 -17 83 -21 105 -3 22 -7 47 -10 55 -2 8 -7 44 -10 80 -4 36 -9 81 -11
100 -19 150 -25 737 -10 950 3 47 8 123 11 170 5 76 8 123 20 255 2 22 6 83
10 135 3 52 8 106 10 120 2 14 6 61 10 105 3 44 8 100 10 125 3 25 7 74 9 110
10 128 18 246 22 295 1 28 6 156 9 285 4 129 7 240 7 245 1 28 -14 415 -17
442 -10 103 -17 162 -20 193 -12 91 -15 117 -20 140 -3 14 -8 41 -11 60 -48
289 -171 700 -289 965 -7 17 -30 68 -50 115 -21 47 -69 148 -108 225 -62 124
-90 177 -176 328 -11 20 -30 54 -42 75 -47 83 -93 157 -101 160 -4 2 -8 8 -8
13 0 15 -349 562 -369 579 -6 5 -174 253 -196 289 -5 9 -12 18 -15 21 -4 3
-65 95 -138 205 -72 110 -137 207 -144 215 -7 8 -11 15 -9 15 3 0 -8 20 -24
45 -16 25 -44 72 -63 105 -19 33 -44 76 -55 95 -84 144 -223 438 -288 610 -24
63 -47 117 -51 118 -5 2 -6 7 -3 11 2 4 -18 75 -44 157 -26 82 -63 196 -81
254 -69 222 -178 530 -231 655 -7 17 -13 32 -14 35 -10 39 -176 368 -197 390
-10 11 -16 20 -13 20 6 0 -29 62 -48 85 -4 6 -29 42 -55 82 -26 39 -56 82 -67
95 -12 13 -35 44 -52 68 -17 25 -39 54 -50 65 -10 11 -34 40 -53 65 -79 102
-124 151 -324 356 -93 95 -173 171 -179 167 -6 -3 -7 -1 -4 4 4 6 -8 22 -26
36 -17 14 -46 38 -63 54 -54 49 -136 118 -153 127 -9 5 -20 15 -26 22 -10 12
-169 134 -215 164 -12 8 -28 20 -34 25 -7 6 -19 15 -27 20 -9 6 -67 44 -130
86 -63 42 -148 95 -189 120 -41 24 -88 51 -105 61 -72 43 -123 67 -129 61 -3
-4 -6 -1 -6 5 0 10 -337 182 -355 182 -3 0 -27 10 -53 21 -26 12 -62 28 -81
36 -32 14 -351 133 -357 133 -2 0 -5 -3 -7 -7z m-19002 -8832 c0 -2 32 -4 70
-6 104 -3 368 -15 460 -20 44 -3 121 -7 170 -10 105 -5 219 -13 290 -20 28 -2
86 -7 130 -10 75 -6 118 -9 225 -20 25 -3 72 -7 105 -10 33 -2 75 -7 93 -9 18
-3 66 -8 106 -11 40 -3 81 -7 92 -9 10 -2 46 -7 79 -10 33 -3 76 -9 95 -11 41
-6 98 -13 160 -21 25 -3 56 -7 70 -9 14 -2 61 -9 106 -15 44 -6 89 -12 100
-14 10 -2 41 -7 67 -10 27 -4 56 -9 65 -10 10 -2 38 -6 63 -10 25 -4 57 -9 70
-11 13 -2 64 -11 113 -19 49 -9 92 -14 94 -11 3 2 13 0 23 -5 9 -6 35 -13 56
-16 21 -3 94 -17 163 -30 69 -14 136 -27 150 -30 14 -2 36 -7 50 -10 14 -3 36
-8 50 -10 14 -3 43 -10 65 -16 22 -5 49 -11 60 -13 11 -1 31 -5 45 -10 14 -4
36 -9 50 -11 14 -2 79 -17 145 -34 66 -17 127 -33 135 -35 50 -11 194 -50 315
-85 77 -23 148 -43 157 -45 9 -2 26 -9 37 -15 12 -6 21 -9 21 -6 0 3 26 -4 58
-15 31 -11 64 -22 72 -24 8 -2 48 -15 89 -30 41 -14 98 -28 127 -30 45 -3 58
0 99 27 26 17 49 38 53 47 3 9 8 18 12 21 3 3 21 31 39 62 42 75 80 102 148
105 35 1 57 -3 67 -12 16 -17 72 -238 102 -405 2 -14 9 -45 14 -70 5 -25 12
-63 15 -84 3 -21 7 -48 10 -60 3 -12 7 -46 10 -76 3 -30 7 -73 10 -95 24 -174
30 -296 30 -615 -1 -267 -7 -464 -19 -545 -5 -32 -14 -108 -22 -190 -3 -27 -7
-56 -10 -64 -2 -7 -7 -41 -10 -75 -3 -33 -8 -64 -10 -68 -3 -4 -7 -24 -10 -45
-2 -21 -9 -63 -15 -93 -6 -30 -12 -66 -15 -80 -16 -86 -60 -282 -86 -380 -44
-172 -108 -402 -117 -425 -5 -11 -23 -67 -41 -125 -42 -135 -160 -472 -170
-485 -4 -5 -11 -24 -15 -42 -3 -18 -17 -55 -31 -83 -13 -27 -24 -54 -24 -59 0
-11 -174 -433 -252 -611 -28 -63 -51 -121 -52 -128 -1 -7 -8 -18 -14 -24 -7
-7 -12 -16 -12 -20 0 -7 -48 -117 -143 -328 -18 -40 -81 -180 -147 -325 -13
-27 -33 -72 -45 -100 -134 -293 -306 -696 -308 -717 -1 -10 -5 -18 -9 -18 -4
0 -17 -27 -29 -60 -12 -33 -25 -60 -28 -60 -4 0 -23 12 -42 28 -41 33 -271
262 -263 262 3 0 -14 24 -38 53 -110 130 -253 364 -364 593 -42 88 -82 162
-88 166 -6 4 -8 8 -4 8 7 0 -5 31 -42 115 -29 66 -173 428 -245 615 -36 96
-70 184 -75 195 -5 11 -38 90 -74 175 -138 334 -257 570 -399 791 -75 118
-224 305 -239 301 -5 -1 -7 1 -4 6 2 4 -24 36 -59 70 l-63 62 -33 -27 c-19
-16 -43 -35 -53 -43 -114 -88 -296 -276 -453 -470 -110 -135 -96 -117 -158
-205 -27 -38 -58 -79 -67 -89 -18 -20 -22 -32 -18 -51 1 -5 -2 -7 -6 -2 -4 4
-44 -49 -88 -117 -92 -142 -91 -140 -278 -451 -76 -126 -143 -237 -148 -245
-5 -8 -26 -44 -47 -80 -20 -36 -39 -67 -42 -70 -3 -3 -37 -57 -75 -120 -75
-124 -179 -288 -194 -306 -5 -5 -15 -21 -22 -35 -7 -13 -16 -26 -20 -29 -3 -3
-21 -26 -39 -52 -17 -27 -38 -48 -45 -48 -27 0 -103 45 -142 84 -23 22 -55 67
-73 100 -28 53 -93 236 -105 297 -2 13 -16 58 -30 99 -46 133 -87 207 -108
194 -4 -3 -42 -7 -83 -10 -41 -2 -92 -6 -113 -8 -43 -6 -143 -15 -222 -21 -30
-2 -86 -7 -125 -10 -85 -8 -152 -12 -270 -20 -49 -3 -117 -8 -150 -10 -33 -3
-97 -8 -143 -10 -46 -2 -122 -7 -170 -9 -48 -3 -134 -8 -192 -11 -58 -3 -150
-7 -205 -10 -162 -8 -511 -22 -775 -30 -359 -11 -498 -15 -780 -20 -572 -10
-867 -14 -1445 -21 -953 -10 -1787 -22 -1980 -28 -113 -4 -103 -8 -207 85 -39
35 -76 67 -82 71 -6 3 -32 26 -57 50 -25 24 -87 81 -139 128 -51 47 -112 103
-135 125 -134 129 -163 154 -170 147 -3 -4 -5 -2 -3 3 2 6 -27 41 -64 79 -38
37 -68 66 -68 64 0 -4 -100 97 -410 411 -35 36 -69 64 -75 63 -5 -2 -7 -1 -3
3 9 9 -33 56 -44 49 -5 -3 -7 -1 -6 4 3 8 -128 149 -387 418 -27 28 -111 116
-185 194 -74 79 -156 165 -181 192 -25 26 -49 44 -53 40 -4 -4 -6 -2 -4 5 1 6
-76 93 -172 193 -96 100 -179 188 -183 196 -5 8 -12 12 -18 9 -5 -4 -9 -2 -9
4 0 14 -102 121 -111 116 -10 -7 -4 27 21 120 12 44 23 94 26 110 2 17 6 41 9
55 12 58 25 209 40 445 17 262 28 386 41 455 2 14 6 36 9 50 5 24 25 124 30
145 1 6 6 19 10 30 5 11 17 42 27 69 32 83 69 139 133 201 113 111 224 147
430 141 159 -5 205 -11 228 -35 35 -34 47 -115 43 -281 -3 -85 -7 -171 -9
-190 -2 -19 -8 -71 -12 -115 -4 -44 -9 -88 -10 -97 -16 -83 -25 -390 -14 -448
4 -19 10 -51 12 -70 10 -64 53 -180 68 -180 5 0 9 -6 9 -14 0 -34 113 -112
195 -135 39 -10 40 -10 83 32 62 60 115 142 142 217 29 81 35 230 14 340 -8
41 -16 84 -18 95 -2 11 -13 58 -24 105 -12 47 -23 101 -26 120 -3 19 -8 46
-11 60 -22 100 -30 196 -30 370 0 169 10 298 23 312 4 3 45 22 92 41 47 19
110 46 140 60 195 91 327 122 543 125 138 3 185 -5 238 -41 38 -25 85 -97 94
-142 18 -98 23 -214 11 -234 -13 -20 27 -29 71 -16 24 7 45 13 46 13 17 2 57
24 57 32 0 6 4 9 10 5 5 -3 28 11 50 32 60 54 103 117 191 287 34 65 96 152
132 187 52 50 141 91 222 103 17 2 31 5 33 6 7 5 94 2 99 -4 3 -3 13 -6 22 -6
45 0 120 -92 135 -165 17 -79 62 -228 81 -265 39 -77 89 -116 160 -125 17 -2
75 23 91 40 39 38 52 87 48 175 -2 47 -6 97 -9 111 -20 101 -26 246 -11 304 2
11 5 23 5 27 1 8 37 15 106 23 28 3 64 7 80 10 17 2 50 7 75 10 25 2 70 8 100
11 30 4 63 7 73 8 9 0 17 3 17 6 0 3 17 5 38 6 33 0 116 9 182 19 39 6 109 14
175 21 33 3 71 7 85 9 14 2 52 6 85 10 33 4 74 9 90 11 17 2 57 6 90 10 33 3
78 7 100 10 22 2 58 6 80 9 22 2 60 7 85 9 66 8 139 15 195 21 64 6 160 15
205 20 19 2 64 7 100 10 36 3 81 8 100 10 19 2 71 7 115 11 44 3 98 8 120 10
36 3 90 7 230 18 28 2 88 7 135 11 47 4 101 9 120 10 19 2 35 4 35 4 0 1 41 4
90 6 50 3 122 7 160 10 39 3 111 8 160 11 50 3 115 7 145 9 30 2 114 7 185 10
72 4 162 8 200 10 73 4 298 13 494 20 62 2 115 6 117 8 5 4 1639 2 1639 -2z
m-10417 -1296 c7 -14 19 -28 27 -31 8 -4 12 -10 9 -15 -3 -6 -1 -15 4 -22 10
-12 28 -70 39 -130 4 -18 7 -175 8 -349 1 -282 0 -318 -14 -322 -9 -3 -36 -8
-61 -11 -71 -11 -105 -19 -142 -34 -16 -6 -28 -8 -28 -5 0 4 -7 0 -17 -7 -9
-8 -17 -13 -17 -11 -2 8 -146 -52 -215 -91 -51 -28 -219 -137 -245 -158 -47
-40 -60 -49 -65 -49 -3 0 -17 -10 -31 -22 -14 -13 -43 -36 -65 -53 -22 -16
-44 -33 -50 -37 -45 -36 -92 -70 -141 -103 -33 -22 -61 -42 -64 -45 -11 -13
-169 -101 -222 -124 -52 -23 -98 -30 -98 -15 0 4 -30 26 -67 50 -38 24 -72 47
-78 52 -5 4 -46 35 -90 68 -178 133 -305 250 -415 379 -30 36 -57 67 -61 70
-3 3 -20 28 -39 55 -19 28 -36 52 -39 55 -21 18 -113 192 -166 315 -10 22 -20
43 -22 47 -2 4 11 17 29 28 35 22 217 95 258 104 14 3 83 21 153 40 70 19 142
37 160 39 18 3 57 10 87 17 30 6 66 13 80 15 14 2 50 8 80 14 30 6 71 13 90
16 19 3 46 7 60 10 14 3 41 7 60 10 19 3 60 10 90 15 30 5 73 12 95 15 34 5
286 48 350 60 56 10 215 42 250 50 122 26 464 121 474 131 13 12 39 1 49 -21z
m18118 -3017 c33 -50 34 -51 108 -188 80 -147 264 -586 281 -670 2 -8 4 -16 5
-17 2 -2 3 -6 5 -10 1 -5 5 -16 9 -25 4 -9 9 -22 10 -30 1 -7 20 -67 40 -132
21 -66 40 -127 41 -135 2 -9 4 -16 5 -16 1 0 3 -7 5 -15 3 -8 27 -100 55 -205
27 -104 52 -199 54 -210 3 -11 19 -81 36 -155 17 -74 33 -146 35 -160 2 -14 7
-36 10 -50 8 -36 25 -121 30 -150 2 -14 11 -63 20 -110 9 -47 18 -98 20 -115
3 -16 7 -41 10 -55 12 -62 15 -78 20 -120 4 -25 8 -56 10 -70 2 -14 7 -43 10
-65 2 -22 7 -51 9 -65 3 -14 7 -47 11 -75 3 -27 8 -63 10 -80 5 -32 13 -99 21
-180 2 -27 6 -66 9 -85 2 -19 7 -64 10 -100 3 -36 8 -94 11 -130 34 -389 39
-1016 10 -1340 -14 -151 -18 -195 -31 -280 -8 -52 -17 -114 -20 -137 -4 -36
-11 -74 -41 -223 -32 -158 -135 -479 -182 -566 -6 -11 -17 -34 -24 -51 -7 -18
-16 -33 -20 -33 -5 0 -8 -5 -8 -11 0 -28 -154 -257 -202 -300 -10 -9 -14 -19
-10 -23 4 -4 2 -6 -4 -4 -6 2 -32 -18 -58 -44 -25 -27 -50 -48 -54 -48 -4 0
-19 -11 -34 -24 -53 -50 -216 -127 -328 -155 -108 -27 -289 -34 -430 -17 -51
7 -178 32 -208 41 -7 3 -16 5 -20 6 -95 23 -498 192 -522 219 -3 3 -34 21 -69
39 -90 47 -415 256 -449 288 -8 8 -11 22 -7 33 3 11 9 32 11 47 5 28 41 183
49 216 8 29 16 61 21 87 3 14 16 66 30 115 14 50 28 104 31 120 3 17 9 38 14
48 5 9 7 17 3 17 -3 0 -1 7 6 15 7 8 10 15 7 15 -3 0 8 44 25 98 16 53 31 104
33 112 6 28 120 388 132 420 4 8 7 17 8 20 2 10 47 145 52 160 3 8 7 20 9 25
5 18 91 260 102 286 6 15 8 30 5 33 -4 3 -1 6 5 6 7 0 12 6 12 13 0 11 157
446 187 517 3 8 7 20 8 25 3 9 29 78 50 130 4 11 9 25 11 30 1 6 48 132 104
280 194 516 335 927 463 1345 58 189 162 577 183 680 3 13 14 63 25 110 28
118 76 362 105 525 7 40 26 161 30 190 2 17 6 41 9 54 2 13 7 48 11 79 3 30 8
63 9 71 2 9 6 50 11 91 4 41 9 78 10 83 1 4 2 12 3 17 2 17 7 12 37 -32z
m13804 -3428 c21 -11 42 -24 45 -30 4 -6 11 -8 16 -4 5 3 8 2 7 -3 -2 -4 9
-24 23 -43 35 -47 67 -136 76 -212 13 -113 7 -384 -13 -583 -7 -73 -7 -332 0
-388 l6 -48 -73 -33 c-39 -18 -93 -38 -120 -45 -135 -33 -327 -33 -482 -1 -27
6 -61 13 -75 15 -14 3 -37 10 -52 16 -15 6 -34 9 -42 6 -8 -3 -16 -2 -18 2 -2
4 -30 15 -63 23 l-60 14 2 38 c2 21 19 75 39 120 20 44 36 87 37 94 0 6 4 12
8 12 4 0 18 17 30 38 23 37 126 168 164 208 219 231 256 272 331 380 73 103
145 302 148 406 1 44 10 46 66 18z"/>
<path d="M13005 33466 c-12 -10 -61 -186 -72 -261 -2 -16 -6 -37 -9 -45 -3 -8
-8 -33 -10 -55 -3 -22 -9 -51 -13 -65 -4 -14 -9 -47 -10 -74 -1 -28 -4 -53 -7
-58 -15 -24 -23 -354 -12 -453 21 -182 92 -323 192 -385 37 -22 140 -50 153
-41 20 13 82 238 108 389 3 17 7 45 10 60 5 30 11 72 22 162 9 75 9 384 0 445
-37 245 -141 378 -306 389 -18 1 -38 -3 -46 -8z"/>
<path d="M32559 40557 c11 -28 25 -185 25 -277 0 -62 -12 -306 -18 -360 -8
-63 -19 -209 -31 -410 -8 -119 -8 -415 -1 -485 9 -85 17 -151 20 -165 1 -8 7
-37 11 -65 5 -27 9 -52 10 -55 15 -72 21 -92 41 -145 4 -11 8 -26 10 -34 9
-44 120 -280 144 -305 5 -4 11 18 15 50 4 33 11 75 15 94 5 19 12 55 15 80 4
25 11 65 17 90 5 25 12 59 15 75 3 17 9 38 14 48 5 9 8 17 5 17 -2 0 4 30 15
68 11 37 22 76 24 86 12 55 142 421 164 463 5 10 19 43 31 73 31 77 155 351
196 433 19 37 34 73 34 78 0 10 -60 91 -84 114 -6 6 -24 28 -41 50 -16 21 -36
46 -45 55 -8 8 -26 30 -38 48 -13 18 -28 29 -34 26 -6 -4 -8 -3 -5 3 4 6 -26
43 -66 84 -69 71 -94 93 -182 160 -49 38 -208 116 -253 125 -32 6 -32 6 -23
-19z"/>
<path d="M41597 18665 c-55 -30 -71 -42 -144 -109 -67 -62 -121 -142 -163
-242 -30 -73 -34 -86 -46 -144 -3 -14 -9 -44 -14 -67 -20 -87 -24 -155 -24
-358 0 -188 4 -279 19 -410 3 -22 8 -62 11 -90 6 -55 12 -104 18 -150 5 -39
16 -120 22 -165 2 -19 6 -48 9 -65 3 -16 7 -52 10 -80 3 -27 7 -63 10 -80 7
-47 15 -132 21 -240 4 -55 7 -101 8 -102 2 -2 27 4 57 13 72 21 185 81 208
110 10 13 21 21 23 18 12 -12 104 130 112 171 1 6 4 15 7 20 11 17 28 78 36
125 14 86 7 393 -12 491 -3 13 -7 41 -10 64 -3 22 -10 66 -16 98 -6 32 -12 70
-14 85 -1 15 -8 54 -14 87 -6 33 -13 78 -16 100 -11 71 -16 100 -20 115 -2 8
-6 40 -10 71 -3 31 -8 67 -10 80 -11 57 -19 195 -19 334 0 157 5 223 27 328 4
19 -19 17 -66 -8z"/>
<path d="M19410 12353 c-139 -51 -247 -139 -319 -261 -40 -66 -89 -184 -97
-232 -3 -14 -7 -33 -10 -42 -9 -29 -14 -62 -20 -113 -3 -27 -9 -79 -13 -115
-10 -85 -3 -680 9 -680 3 0 5 -102 4 -228 -1 -245 -13 -330 -56 -401 l-22 -35
39 24 c22 13 47 29 56 37 8 7 19 13 23 13 23 0 198 163 237 220 13 19 29 41
37 49 40 41 104 215 128 346 12 66 11 461 -1 555 -23 180 -24 556 -1 675 2 11
9 52 16 90 7 39 17 78 22 88 9 18 -1 21 -32 10z"/>
<path d="M6676 11173 c16 -149 9 -580 -11 -685 -2 -10 -7 -49 -10 -86 -3 -37
-8 -80 -11 -95 -3 -15 -7 -44 -9 -65 -1 -20 -6 -75 -11 -122 -11 -107 -11
-358 0 -428 20 -134 82 -265 170 -360 70 -75 95 -92 93 -62 -1 11 -4 20 -7 20
-20 0 -17 511 5 700 3 31 8 83 21 235 29 349 21 555 -31 768 -19 82 -115 210
-184 247 l-23 12 8 -79z"/>
<path d="M13335 10623 c3 -38 7 -111 10 -164 5 -85 12 -154 15 -154 0 0 3 -27
5 -60 2 -33 6 -85 10 -115 9 -92 17 -164 20 -190 3 -26 12 -114 20 -185 2 -22
7 -71 10 -110 3 -38 8 -97 11 -130 13 -137 19 -687 10 -867 l-4 -68 27 19
c142 102 282 369 316 601 2 19 9 62 14 95 8 56 6 351 -3 420 -4 29 -30 175
-40 225 -12 55 -57 195 -92 282 -43 110 -91 199 -153 288 -47 67 -155 180
-172 180 -5 0 -7 -28 -4 -67z"/>
<path d="M32326 9882 c-3 -20 -8 -49 -11 -63 -3 -14 -7 -39 -9 -55 -2 -16 -6
-36 -9 -44 -15 -46 -124 -545 -146 -675 -6 -33 -13 -73 -16 -90 -19 -116 -26
-388 -11 -470 4 -22 9 -47 10 -55 13 -69 57 -171 86 -200 11 -11 17 -20 13
-20 -4 0 16 -22 45 -50 58 -55 106 -83 205 -115 77 -26 72 -29 101 61 27 83
61 248 72 349 3 33 8 62 9 65 7 12 18 234 18 365 0 275 -31 503 -93 680 -33
94 -71 175 -82 175 -4 0 -8 6 -8 13 0 28 -94 127 -148 156 -17 9 -20 6 -26
-27z"/>
<path d="M3785 9648 c4 -24 9 -52 11 -63 18 -87 20 -220 13 -695 -3 -190 -1
-235 14 -290 38 -141 103 -232 219 -309 55 -37 88 -46 72 -19 -4 6 -8 151 -10
324 -5 567 -21 697 -108 888 -37 81 -166 206 -211 206 -4 0 -4 -19 0 -42z"/>
</g>
</svg>
